#!OML:ASF F:\VICON\USERDATA\INSTALL\rory3\rory3.ASF
:FULLY-SPECIFIED
:DEGREES
82
root 1.1711898395462703 18.52252762631898 39.24662579062064 3.897241179587352 -4.657519765716069 -0.9197095064547764
lfemur 13.917870980221906 -6.395327042538611 -27.61091878506325
ltibia 24.065406752133388
lfoot 24.528876497742917 -19.34567183584234
ltoes -13.005228139373006
rfemur -33.12809385621343 -2.2494420438025293 28.456614497375003
rtibia 60.46984369872064
rfoot 10.443876315688367 -3.73811870881737
rtoes -0.09140457328473861
lowerback nan -0.8845856017890782 -0.9428091902878739
upperback 0.14070714676869756 0.8652741058542076 -0.19601865785819172
thorax -6.693455044270019 -0.35518110849392703 2.4845765861193905
lowerneck -18.474322205632255 -2.9421083718307655 -2.5475165887447737
upperneck 5.4594189625833245 -4.947213275845275 5.583325907520741
head 5.417780792039598 -1.2634397795657795 1.3915587560818852
lclavicle -9.995611369823606e-15 2.590847081251446e-15
lhumerus -47.56892230714745 -2.057544828469209 83.71334281220798
lradius 125.40376602236175
lwrist 35.329577792215844
lhand -27.543838565601693 4.124634702961392
lfingers nan
lthumb -0.7378345795149388 33.57699470664882
rclavicle -9.625314076656782e-15 5.303714373916071e-15
rhumerus -62.698493127593 -1.5481006835640532 -90.14334187300078
rradius 99.62547088229739
rwrist -14.354496599111195
rhand -24.36911633041187 nan
rfingers nan
rthumb 1.6408672243996705 15.174056300075897
83
root 1.183940841832757 18.46910695150177 39.968963773590076 3.5547314009320043 -4.765761805157006 -1.0382326894956502
lfemur 12.772918806823249 -5.6691740851364045 -27.050932308699274
ltibia 28.424925250560133
lfoot 25.839953002174614 -19.152635497249353
ltoes -8.80165659271087
rfemur -31.84498895645214 -2.3475196151435838 29.147654190346312
rtibia 60.69136676122272
rfoot 10.997488729288795 -3.4302920446236564
rtoes -0.11316119648200917
lowerback nan -0.8045729032781092 -0.737266067399192
upperback 0.312290877923567 1.0519914178650698 -0.17360349542175935
thorax -6.485018086013442 -0.2786420488579612 2.4036578473819934
lowerneck -18.152835595505575 -3.0028553393366817 -2.4751541718156522
upperneck 4.9823711087602165 -5.001290919442753 5.410850147464637
head 5.20955231196037 -1.2901537432134864 1.32604999338722
lclavicle -6.599456879226165e-15 3.669018745246151e-15
lhumerus -47.65126133780387 -2.0308460677840046 84.25996151937078
lradius 124.08460501636189
lwrist 35.52133816407989
lhand -29.079469694322636 2.789552111956778
lfingers nan
lthumb -2.2167625857283646 32.24441999665735
rclavicle -6.5622392466771e-15 6.422462240432451e-15
rhumerus -61.863567295160664 -1.573462348718527 -90.05756647117691
rradius 99.66550896203336
rwrist -16.57841080552423
rhand -21.767369584271105 nan
rfingers nan
rthumb 4.2296729931222 13.564477601865898
84
root 1.1961789077257339 18.412053664736455 40.67466236176794 3.2083772700604447 -4.628837206219959 -1.030300837872844
lfemur 11.76065066436615 -5.071180516488605 -26.590287431259934
ltibia 32.55970381556716
lfoot 26.871302731261565 -19.226855643460787
ltoes -6.432440426448676
rfemur -30.582091873240827 -2.5338414103846874 29.53333194698399
rtibia 61.44666063180788
rfoot 11.305274640601304 -2.3076189731784322
rtoes 0.9729657955407935
lowerback nan -0.7981650523271745 -0.5569287558408949
upperback 0.5487782095587795 1.1338133109208208 -0.1844089679211276
thorax -5.924633448642019 -0.23937478039214888 2.2779874115044123
lowerneck -17.958306441343673 -3.0188152211856267 -2.436132686826266
upperneck 4.548165956794734 -4.984880091463257 5.400147056065745
head 5.045405120958121 -1.2858474086390324 1.3111314815236883
lclavicle -4.7909253234231925e-15 5.803501718640661e-16
lhumerus -47.661798578761484 -1.9643414639141499 84.65918979668272
lradius 122.76225378873836
lwrist 35.62641828590861
lhand -29.41461001574384 4.064987506121046
lfingers nan
lthumb -2.53924546760077 33.53085821398163
rclavicle -4.4062459858641325e-15 3.774026924312653e-15
rhumerus -60.93467822891416 -1.562232961650217 -90.15043505001191
rradius 99.44898508490655
rwrist -18.525549320026244
rhand -19.358006755948864 nan
rfingers nan
rthumb 6.548128847880911 12.464225358932246
85
root 1.1822243075717722 18.367630159915596 41.27384487645904 3.3413523415355924 -4.652977010885936 -1.6271491897820947
lfemur 9.776009766142522 -3.9217352027002286 -25.03785664500056
ltibia 36.9842570351006
lfoot 27.490829757360157 -20.271842610077083
ltoes -5.857536334931678
rfemur -29.893365083618505 -1.6709495433198902 30.444636180880522
rtibia 62.5469685132537
rfoot 11.53654844363402 -0.627949782192375
rtoes 3.9355915123938168
lowerback nan -0.7578580295384284 -0.06215545775744702
upperback 0.4505249481081445 1.3078835058239917 0.011363921104332597
thorax -6.389182785155463 -0.13202954265344669 2.131466756081109
lowerneck -17.69005117354807 -3.0368400828508912 -2.5600545595878934
upperneck 4.619410320857826 -4.974927611019735 5.65673245815148
head 4.995589632778138 -1.2783957310360965 1.385491737732538
lclavicle -1.7384258657844142e-14 1.1149362055638918e-14
lhumerus -47.93220616906348 -1.8520723949390696 85.0870609833691
lradius 121.35245532425802
lwrist 35.45764045770917
lhand -29.31617458319927 3.7792845349582
lfingers nan
lthumb -2.4174349848455385 33.26248358885089
rclavicle -1.6743293135213322e-14 1.441160688377245e-14
rhumerus -60.14798820026296 -1.4579962686285093 -90.44834517772705
rradius 99.20690565092256
rwrist -19.113769898295082
rhand -18.296411780527773 nan
rfingers nan
rthumb 7.560775983150013 12.490026579135135
